# xmcd
#
# Track frame offsets: 
#        150
#        12629
#        26662
#        50406
#        67349
#        87634
#        103163
#        116849
#        136573
#        154051
#        166799
#
# Disc length: 2432 seconds
#
# Revision: 1
# Processed by: cddbd v1.5.2PL0 Copyright (c) Steve Scherf et al.
# Submitted via: ExactAudioCopy v1.0b1
#
DISCID=96097e0b
DTITLE=Gunter Gabriel - Gesucht
DYEAR=1973
DGENRE=Country
TTITLE0=Big Bad John
TTITLE1=Detroit City
TTITLE2=Mein anderes ich und ich
TTITLE3=Freiheit ist ein Abenteuer (Me And Bobby McGee)
TTITLE4=Fünf Uhr morgens
TTITLE5=Ich nehm' dich so wie du bist
TTITLE6=Wär' ich doch nur ein Rolling Stone (The Cover Of The Rolling 
TTITLE6=Stone)
TTITLE7=Er ist ein Kerl (Der 30-Tonner Diesel)
TTITLE8=Hallo mein Freund
TTITLE9=Wenn ich nur ein Maler wär' (If I Were A Carpenter)
TTITLE10=Ich werd' gesucht
EXTD=YEAR: 1973
EXTT0=
EXTT1=
EXTT2=
EXTT3=
EXTT4=
EXTT5=
EXTT6=
EXTT7=
EXTT8=
EXTT9=
EXTT10=
PLAYORDER=
